<svg width="20" height="20" viewBox="0 0 20 20" fill="none" xmlns="http://www.w3.org/2000/svg">
<path d="M14.1671 9.8249L10.5921 13.3582C10.5146 13.4363 10.4224 13.4983 10.3209 13.5406C10.2193 13.583 10.1104 13.6047 10.0004 13.6047C9.89039 13.6047 9.78147 13.583 9.67992 13.5406C9.57837 13.4983 9.48621 13.4363 9.40874 13.3582L5.8754 9.8249C5.7973 9.74744 5.7353 9.65527 5.693 9.55372C5.65069 9.45217 5.62891 9.34325 5.62891 9.23324C5.62891 9.12323 5.65069 9.01431 5.693 8.91276C5.7353 8.81121 5.7973 8.71904 5.8754 8.64157C6.03154 8.48636 6.24275 8.39924 6.4629 8.39924C6.68306 8.39924 6.89427 8.48636 7.0504 8.64157L10.0004 11.5916L12.9504 8.64157C13.1056 8.48762 13.3151 8.40083 13.5337 8.3999C13.6434 8.39927 13.7521 8.42029 13.8537 8.46176C13.9552 8.50323 14.0475 8.56434 14.1254 8.64157C14.2063 8.71625 14.2716 8.80622 14.3175 8.90629C14.3634 9.00635 14.3891 9.11452 14.393 9.22455C14.3968 9.33458 14.3789 9.44429 14.3401 9.54733C14.3013 9.65038 14.2425 9.74472 14.1671 9.8249Z" fill="#828282"/>
</svg>
